#!OML:ASF I:\Actors\actors\Patient Classification 1\Patient 1\Session 1\Subject1.ASF
:FULLY-SPECIFIED
:DEGREES
1114
root 0.744876 17.4877 9.59755 8.83303 4.87718 -8.90548
lowerback -3.98378 -0.444272 5.24508
upperback -7.94109 -0.450382 2.96226
thorax -6.0705 -0.425135 0.166903
lowerneck -11.0154 -3.56914 -2.16382
upperneck 29.4165 -6.30001 5.33611
head 11.6544 -2.445 1.51457
rclavicle 1.05232e-014 -2.72335e-014
rhumerus -39.2064 20.3412 -90.5362
rradius 105.959
rwrist -6.49389
rhand -2.62649 -56.9113
rfingers 7.12502
rthumb 23.0724 -85.5501
lclavicle 1.05232e-014 -2.72335e-014
lhumerus -50.4226 -0.944921 93.1232
lradius 109.196
lwrist 56.6562
lhand -42.5252 2.9294
lfingers 7.12502
lthumb -15.401 32.3357
rfemur -0.802066 26.243 26.8158
rtibia 1.15396
rfoot -15.9987 -31.0487
rtoes 5.42647
lfemur 8.05856 -50.993 -13.9981
ltibia -5.80842
lfoot -20.9627 53.2759
ltoes 4.54163
1115
root 0.74158 17.4864 9.60052 8.74427 4.88814 -8.97703
lowerback -3.9545 -0.530267 5.24182
upperback -7.91074 -0.561325 3.0466
thorax -6.05789 -0.476846 0.258259
lowerneck -11.0936 -3.5386 -2.22323
upperneck 29.6204 -6.26549 5.36198
head 11.7521 -2.42772 1.53954
rclavicle 2.29845e-014 -5.87409e-014
rhumerus -39.2216 20.2448 -90.3728
rradius 105.971
rwrist -6.57963
rhand -2.54554 -57.0672
rfingers 7.12502
rthumb 23.1501 -85.6962
lclavicle 2.29845e-014 -5.87409e-014
lhumerus -50.4886 -0.965972 93.1569
lradius 109.165
lwrist 56.8551
lhand -42.5611 2.97671
lfingers 7.12502
lthumb -15.4357 32.3804
rfemur -0.728826 26.1877 26.9628
rtibia 1.22801
rfoot -15.9432 -31.0245
rtoes 5.1689
lfemur 8.21952 -50.9309 -14.0096
ltibia -5.8474
lfoot -21.0039 53.1941
ltoes 4.71119
1116
root 0.740071 17.4855 9.6019 8.70699 4.77737 -9.03037
lowerback -3.96753 -0.570638 5.23109
upperback -7.8806 -0.614619 3.13291
thorax -6.01889 -0.499008 0.354276
lowerneck -11.0294 -3.46835 -2.15
upperneck 29.6603 -6.15858 5.27651
head 11.7434 -2.38278 1.51112
rclavicle 1.61885e-014 -1.93815e-014
rhumerus -39.1995 20.2484 -90.2489
rradius 105.929
rwrist -6.53304
rhand -2.45896 -57.2931
rfingers 7.12502
rthumb 23.2331 -85.9117
lclavicle 1.61885e-014 -1.93815e-014
lhumerus -50.5004 -0.956617 93.2025
lradius 109.135
lwrist 57.004
lhand -42.4454 3.11972
lfingers 7.12502
lthumb -15.3242 32.5319
rfemur -0.755397 26.1608 27.035
rtibia 1.33742
rfoot -15.8635 -30.9283
rtoes 4.84944
lfemur 8.36055 -50.8738 -14.0487
ltibia -5.89616
lfoot -21.0239 53.244
ltoes 4.81689
1117
root 0.740956 17.4845 9.60345 8.69578 4.59981 -9.003
lowerback -3.98445 -0.552237 5.19725
upperback -7.8744 -0.590921 3.15887
thorax -6.00071 -0.484167 0.399389
lowerneck -10.9914 -3.45911 -2.19693
upperneck 29.7193 -6.14124 5.28293
head 11.7598 -2.37934 1.52513
rclavicle 1.36043e-014 -2.98177e-016
rhumerus -39.2651 20.197 -90.161
rradius 105.927
rwrist -6.33317
rhand -2.25118 -57.3618
rfingers 7.12502
rthumb 23.4325 -85.955
lclavicle 1.36043e-014 -2.98177e-016
lhumerus -50.4336 -1.03851 93.2904
lradius 109.052
lwrist 57.0264
lhand -42.3867 3.23645
lfingers 7.12502
lthumb -15.2677 32.653
rfemur -0.805523 26.0774 26.9734
rtibia 1.42887
rfoot -15.8167 -30.7005
rtoes 4.77361
lfemur 8.53172 -50.8481 -14.2396
ltibia -5.91214
lfoot -21.2232 53.3452
ltoes 4.98309
1118
root 0.743782 17.4835 9.60586 8.72084 4.4164 -8.92593
lowerback -4.03266 -0.497002 5.17986
upperback -7.89726 -0.521894 3.11218
thorax -5.99546 -0.450687 0.359075
lowerneck -10.9586 -3.47474 -2.18621
upperneck 29.8053 -6.16798 5.2655
head 11.7874 -2.39153 1.51447
rclavicle -1.4561e-014 -1.88845e-015
rhumerus -39.4214 20.108 -90.1354
rradius 105.993
rwrist -6.2287
rhand -2.03058 -57.3031
rfingers 7.12502
rthumb 23.6441 -85.8692
lclavicle -1.4561e-014 -1.88845e-015
lhumerus -50.3202 -1.19259 93.3697
lradius 108.946
lwrist 57.0106
lhand -42.3814 3.23933
lfingers 7.12502
lthumb -15.2625 32.6563
rfemur -0.875035 25.9719 26.8237
rtibia 1.47974
rfoot -15.8144 -30.4397
rtoes 4.80829
lfemur 8.64871 -50.8304 -14.4565
ltibia -5.90551
lfoot -21.4512 53.4468
ltoes 5.23977
1119
root 0.746185 17.4836 9.60978 8.74988 4.17465 -8.86269
lowerback -4.08523 -0.416369 5.17503
upperback -7.92795 -0.41931 3.05581
thorax -5.99529 -0.401742 0.30145
lowerneck -10.882 -3.48643 -2.09923
upperneck 29.8534 -6.17836 5.16409
head 11.7843 -2.39973 1.46193
rclavicle -1.33434e-014 1.07344e-014
rhumerus -39.59 20.076 -90.1857
rradius 106.081
rwrist -6.33781
rhand -2.03855 -57.4002
rfingers 7.12502
rthumb 23.6364 -85.9673
lclavicle -1.33434e-014 1.07344e-014
lhumerus -50.2626 -1.31507 93.4099
lradius 108.883
lwrist 56.9789
lhand -42.3017 2.5418
lfingers 7.12502
lthumb -15.1858 31.9645
rfemur -0.92656 25.9665 26.705
rtibia 1.51544
rfoot -15.7883 -30.2418
rtoes 4.76462
lfemur 8.8273 -50.8812 -14.7081
ltibia -5.9114
lfoot -21.8792 53.6303
ltoes 5.80659
1120
root 0.747422 17.4835 9.6135 8.75308 3.88755 -8.81086
lowerback -4.08573 -0.325339 5.16505
upperback -7.95775 -0.298115 3.01775
thorax -6.02291 -0.343062 0.266252
lowerneck -10.7704 -3.49431 -2.075
upperneck 29.8535 -6.17655 5.10028
head 11.7579 -2.40646 1.43614
rclavicle 1.76421e-014 1.98785e-015
rhumerus -39.7136 20.0887 -90.251
rradius 106.112
rwrist -6.43283
rhand -2.07394 -57.4988
rfingers 7.12502
rthumb 23.6025 -86.0703
lclavicle 1.76421e-014 1.98785e-015
lhumerus -50.2627 -1.4192 93.4289
lradius 108.874
lwrist 56.9547
lhand -42.2339 1.1373
lfingers 7.12502
lthumb -15.1205 30.565
rfemur -0.931747 26.0363 26.6265
rtibia 1.54259
rfoot -15.7449 -30.0818
rtoes 4.68695
lfemur 8.98784 -50.7624 -14.9183
ltibia -5.90904
lfoot -22.3444 53.6701
ltoes 6.19171
1121
root 0.74957 17.4826 9.61552 8.75264 3.66323 -8.77359
lowerback -4.04521 -0.232098 5.21989
upperback -7.99885 -0.17122 2.95497
thorax -6.08698 -0.286907 0.169776
lowerneck -10.6434 -3.52046 -2.12154
upperneck 29.8452 -6.21668 5.14248
head 11.7336 -2.42742 1.45662
rclavicle 1.62134e-014 -7.45443e-015
rhumerus -39.7991 20.0646 -90.3217
rradius 106.092
rwrist -6.39249
rhand -2.03525 -57.4074
rfingers 7.12502
rthumb 23.6396 -85.9741
lclavicle 1.62134e-014 -7.45443e-015
lhumerus -50.2524 -1.55125 93.4577
lradius 108.895
lwrist 56.9298
lhand -42.3404 0.563938
lfingers 7.12502
lthumb -15.2231 29.9839
rfemur -0.922998 26.0705 26.5639
rtibia 1.52825
rfoot -15.6405 -29.9613
rtoes 4.35473
lfemur 9.06404 -50.5803 -15.0345
ltibia -5.89347
lfoot -22.5969 53.6463
ltoes 6.27851
1122
root 0.752806 17.482 9.61813 8.7451 3.46599 -8.76852
lowerback -4.01363 -0.12421 5.33857
upperback -8.02593 -0.0267557 2.87814
thorax -6.13063 -0.22583 0.0223788
lowerneck -10.5592 -3.55813 -2.15722
upperneck 29.8519 -6.27634 5.18358
head 11.7246 -2.45484 1.4716
rclavicle -5.34234e-016 -1.92821e-014
rhumerus -39.8608 20.0387 -90.3904
rradius 106.07
rwrist -6.33887
rhand -2.06727 -57.292
rfingers 7.12502
rthumb 23.6089 -85.8626
lclavicle -5.34234e-016 -1.92821e-014
lhumerus -50.1786 -1.65611 93.5041
lradius 108.935
lwrist 56.8431
lhand -42.4718 1.08662
lfingers 7.12502
lthumb -15.3496 30.4969
rfemur -0.880228 26.142 26.5498
rtibia 1.4805
rfoot -15.521 -29.8769
rtoes 3.95342
lfemur 9.17054 -50.4512 -15.1386
ltibia -5.89486
lfoot -22.7907 53.6643
ltoes 6.52752
1123
root 0.756778 17.4818 9.62172 8.74399 3.25678 -8.72239
lowerback -4.03653 -0.0275939 5.39901
upperback -8.02032 0.0970665 2.81425
thorax -6.10709 -0.169624 -0.0798817
lowerneck -10.5396 -3.57451 -2.17197
upperneck 29.8636 -6.29572 5.17857
head 11.7265 -2.46593 1.47013
rclavicle -6.1996e-015 -8.84592e-015
rhumerus -39.8796 20.1255 -90.4438
rradius 106.076
rwrist -6.3431
rhand -2.21427 -57.2175
rfingers 7.12502
rthumb 23.4679 -85.8062
lclavicle -6.1996e-015 -8.84592e-015
lhumerus -50.0978 -1.68641 93.5211
lradius 108.986
lwrist 56.7624
lhand -42.4299 1.56722
lfingers 7.12502
lthumb -15.3092 30.9806
rfemur -0.831258 26.2493 26.4837
rtibia 1.43089
rfoot -15.4637 -29.7905
rtoes 3.83555
lfemur 9.29364 -50.3657 -15.3292
ltibia -5.87392
lfoot -22.9401 53.713
ltoes 6.73506
1124
root 0.763506 17.4804 9.62507 8.83463 3.2447 -8.63179
lowerback -4.16996 -0.0081584 5.46998
upperback -8.03282 0.109973 2.7475
thorax -6.04456 -0.168739 -0.189572
lowerneck -10.5699 -3.57005 -2.19437
upperneck 29.8908 -6.2856 5.1785
head 11.7437 -2.46272 1.47502
rclavicle 6.1996e-015 4.87022e-015
rhumerus -39.875 20.3353 -90.5415
rradius 106.101
rwrist -6.52982
rhand -2.45811 -57.2448
rfingers 7.12502
rthumb 23.2339 -85.8632
lclavicle 6.1996e-015 4.87022e-015
lhumerus -50.0476 -1.63417 93.503
lradius 109.02
lwrist 56.6966
lhand -42.2851 1.38902
lfingers 7.12502
lthumb -15.1698 30.813
rfemur -0.873127 26.2899 26.3216
rtibia 1.35157
rfoot -15.4732 -29.8202
rtoes 3.92673
lfemur 9.08573 -50.2891 -15.3156
ltibia -5.79588
lfoot -22.7077 53.6571
ltoes 6.54971
1125
root 0.771612 17.4782 9.62888 8.9648 3.40536 -8.58227
lowerback -4.3508 -0.0345174 5.63538
upperback -8.06097 0.058505 2.68015
thorax -5.97646 -0.205399 -0.351475
lowerneck -10.628 -3.56172 -2.22362
upperneck 29.9314 -6.27834 5.20865
head 11.7736 -2.45703 1.4916
rclavicle 1.33186e-014 -1.56046e-014
rhumerus -39.8479 20.5158 -90.6646
rradius 106.109
rwrist -6.74652
rhand -2.71348 -57.3511
rfingers 7.12502
rthumb 22.9889 -86.0002
lclavicle 1.33186e-014 -1.56046e-014
lhumerus -49.9643 -1.54461 93.4664
lradius 109.028
lwrist 56.5837
lhand -42.1564 0.918642
lfingers 7.12502
lthumb -15.0459 30.3519
rfemur -0.930847 26.3937 26.2108
rtibia 1.23295
rfoot -15.5838 -30.0395
rtoes 4.31152
lfemur 8.66613 -50.1723 -15.0556
ltibia -5.71891
lfoot -22.3338 53.4145
ltoes 6.34481
